<svg width="33" height="25" fill="none" xmlns="http://www.w3.org/2000/svg"><path d="M31.998 8.112L24.038.326a1.155 1.155 0 00-1.608 0 1.1 1.1 0 00-.333.786V4.45h-7.96C13.51 4.45 13 4.947 13 5.562c0 .614.51 1.112 1.137 1.112h9.097c.628 0 1.137-.498 1.137-1.112V3.797L29.588 8.9 24.373 14v-1.763c0-.615-.51-1.113-1.138-1.113H10.726V7.786c0-.614-.51-1.112-1.138-1.112-.301 0-.59.117-.803.326l-7.96 7.786a1.095 1.095 0 000 1.573l7.96 7.787a1.15 1.15 0 001.24.241c.424-.172.7-.578.7-1.028v-3.337h7.96c.629 0 1.138-.498 1.138-1.112 0-.614-.51-1.113-1.137-1.113H9.589c-.628 0-1.138.498-1.138 1.113v1.764l-5.215-5.101 5.215-5.101v1.764c0 .614.51 1.112 1.138 1.112h12.508v3.337c0 .614.51 1.112 1.138 1.112.301 0 .59-.117.803-.325l7.96-7.787a1.095 1.095 0 000-1.573z" fill="#EC7000"/></svg>