<svg width="55" height="55" fill="none" xmlns="http://www.w3.org/2000/svg"><path d="M27.5 30.98c-16.526 0-25.627 7.817-25.627 22.013C1.873 54.1 2.772 55 3.881 55h47.238a2.007 2.007 0 002.008-2.007c0-14.195-9.102-22.014-25.627-22.014zM5.961 50.984c.79-10.614 8.026-15.991 21.539-15.991 13.513 0 20.75 5.377 21.54 15.991H5.96zM27.5 0c-7.591 0-13.315 5.84-13.315 13.582 0 7.97 5.973 14.453 13.315 14.453s13.315-6.483 13.315-14.452C40.815 5.839 35.091 0 27.5 0zm0 24.02c-5.129 0-9.3-4.682-9.3-10.437 0-5.544 3.911-9.568 9.3-9.568 5.303 0 9.3 4.113 9.3 9.568 0 5.755-4.171 10.438-9.3 10.438z" fill="#EC7000"/></svg>