<svg width="25" height="25" fill="none" xmlns="http://www.w3.org/2000/svg"><g clip-path="url(#clip0)" fill="#EC7000"><path d="M19.197 14.286h-.893a.432.432 0 00-.447.446v4.464a2.15 2.15 0 01-.655 1.577 2.15 2.15 0 01-1.577.655H4.018a2.15 2.15 0 01-1.577-.655 2.15 2.15 0 01-.655-1.577V7.59c0-.614.218-1.14.655-1.576a2.15 2.15 0 011.577-.656h9.821c.13 0 .237-.042.321-.125a.434.434 0 00.126-.321v-.893a.434.434 0 00-.126-.321.434.434 0 00-.32-.126H4.017c-1.107 0-2.053.393-2.84 1.18C.394 5.535 0 6.482 0 7.588v11.607c0 1.107.393 2.054 1.179 2.84.786.785 1.732 1.178 2.839 1.178h11.607c1.107 0 2.053-.393 2.84-1.179.785-.785 1.178-1.732 1.178-2.839v-4.464a.434.434 0 00-.126-.32.434.434 0 00-.32-.127z"/><path d="M24.735 2.05a.858.858 0 00-.628-.264h-7.143a.858.858 0 00-.628.265.858.858 0 00-.265.628c0 .241.089.45.265.628l2.456 2.455-9.096 9.096a.44.44 0 000 .642l1.59 1.59a.44.44 0 00.642 0l9.096-9.096 2.455 2.455a.858.858 0 00.628.265.859.859 0 00.628-.265.858.858 0 00.265-.627V2.679a.858.858 0 00-.265-.628z"/></g><defs><clipPath id="clip0"><path fill="#fff" d="M0 0h25v25H0z"/></clipPath></defs></svg>