<svg width="26" height="25" fill="none" xmlns="http://www.w3.org/2000/svg"><g clip-path="url(#clip0)"><path d="M25.256 23.34l-6.1-6.1a10.473 10.473 0 002.43-6.717C21.585 4.72 16.865 0 11.062 0 5.261 0 .541 4.72.541 10.523c0 5.801 4.72 10.521 10.522 10.521 2.552 0 4.894-.913 6.717-2.43l6.102 6.101a.969.969 0 001.374 0 .972.972 0 000-1.374zM2.486 10.524c0-4.73 3.847-8.579 8.577-8.579s8.578 3.848 8.578 8.579c0 4.73-3.848 8.577-8.578 8.577-4.73 0-8.578-3.848-8.578-8.578z" fill="#EC7000"/></g><defs><clipPath id="clip0"><path fill="#fff" transform="translate(.541)" d="M0 0h25v25H0z"/></clipPath></defs></svg>