<svg width="31" height="31" fill="none" xmlns="http://www.w3.org/2000/svg"><path d="M25.301 28.626H5.243v2.279H25.3v-2.28zm-6.42-18.35h-7.028a1.14 1.14 0 100 2.28h7.028a1.14 1.14 0 100-2.28zm5.319 5.319H11.853a1.14 1.14 0 100 2.28H24.2a1.14 1.14 0 100-2.28z" fill="#EC7000"/><path d="M30.328.234a1.14 1.14 0 00-1.223.185l-3.192 2.823L22.718.385a1.14 1.14 0 00-1.52 0l-3.19 2.854L14.815.385a1.139 1.139 0 00-1.52 0L10.1 3.242 6.91.42a1.14 1.14 0 00-1.895.854V21.56H1.14c-.63 0-1.14.51-1.14 1.14v2.772a5.439 5.439 0 005.433 5.433v-2.28a3.157 3.157 0 01-3.154-3.153V23.84h17.856v1.633a5.439 5.439 0 005.432 5.433A5.439 5.439 0 0031 25.472v-24.2a1.14 1.14 0 00-.672-1.038zm-1.607 25.238a3.157 3.157 0 01-3.154 3.154 3.157 3.157 0 01-3.153-3.154V22.7c0-.63-.51-1.14-1.14-1.14H7.294V3.802l2.057 1.82a1.14 1.14 0 001.514-.004l3.191-2.854 3.192 2.853a1.14 1.14 0 001.52 0l3.19-2.854 3.192 2.854a1.14 1.14 0 001.515.004l2.056-1.819v21.67z" fill="#EC7000"/></svg>